<?xml version="1.0" encoding="utf-8"?>
<!-- Generator: Adobe Illustrator 23.0.2, SVG Export Plug-In . SVG Version: 6.00 Build 0)  -->
<svg version="1.1" id="Camada_1" xmlns="http://www.w3.org/2000/svg" xmlns:xlink="http://www.w3.org/1999/xlink" x="0px" y="0px"
	 viewBox="0 0 48 48" style="enable-background:new 0 0 48 48;" xml:space="preserve">
<style type="text/css">
	.st0{display:none;}
	.st1{display:inline;fill:#FEBD59;}
	.st2{fill:#FFFFFF;}
	.st3{fill:none;}
	.st4{font-family:'ModernSansLight';}
	.st5{font-size:3.0525px;}
</style>
<g id="Camada_2" class="st0">
	<rect class="st1" width="48" height="48"/>
</g>
<g id="Camada_4">
	<g>
		<path class="st2" d="M19.35,26.26v-9.59H3.19v9.59l-2.33,3.92v1.08h20.83v-1.08L19.35,26.26z M3.71,17.23h15.13v8.59H3.71V17.23z
			 M9.22,30.07l0.12-1.25h3.74l0.12,1.25H9.22z M3.04,28.57l0.89-1.86h14.7l0.9,1.86H3.04z"/>
		<g>
			<rect x="35.16" y="26.79" class="st3" width="11.98" height="3.01"/>
			<text transform="matrix(1 0 0 1 35.1582 28.9287)" class="st2 st4 st5">em rede</text>
			<path class="st2" d="M8.5,21.52c0.58,0.17,1,0.61,1,1.12c0,0.65-0.68,1.2-1.52,1.2H5.83H5.68v-0.13l0.01-4.25v-0.13h0.15
				l1.83-0.01c0.85,0,1.53,0.55,1.53,1.2C9.2,20.93,8.92,21.3,8.5,21.52z M5.99,21.45l1.68-0.01c0.66,0,1.22-0.41,1.22-0.93
				s-0.56-0.93-1.22-0.93H5.99V21.45z M5.99,21.71v1.87l1.99-0.01c0.66,0,1.21-0.41,1.21-0.93c0-0.52-0.56-0.93-1.21-0.93H7.67H5.99
				z"/>
			<path class="st2" d="M12.55,21.58c0-1.26,1.04-2.26,2.29-2.26s2.29,1,2.29,2.26s-1.04,2.26-2.29,2.26S12.55,22.84,12.55,21.58z
				 M12.85,21.58c0,1.09,0.89,2,1.99,2s1.99-0.9,1.99-2s-0.89-2-1.99-2S12.85,20.49,12.85,21.58z"/>
			<path class="st2" d="M20.91,22.78h-0.1l-0.5,0.98l-0.04,0.08h-0.34l0.1-0.19l2.14-4.26l0.04-0.08h0.2l0.04,0.08l2.14,4.26
				l0.1,0.19h-0.34l-0.04-0.08l-0.5-0.98h-0.11H20.91z M23.69,22.51l-1.38-2.73l-1.38,2.73H23.69z"/>
			<path class="st2" d="M31.5,22.75l0.26,0.13c-0.31,0.49-1.11,0.96-1.96,0.96c-1.26,0-2.29-1-2.29-2.26s1.03-2.26,2.29-2.26
				c0.85,0,1.66,0.47,1.96,0.97l-0.28,0.12c-0.25-0.43-0.95-0.82-1.68-0.82c-1.11,0-1.99,0.9-1.99,2s0.88,2,1.99,2
				C30.53,23.58,31.22,23.17,31.5,22.75z"/>
			<path class="st2" d="M35.39,22.78h-0.1l-0.5,0.98l-0.04,0.08h-0.34l0.1-0.19l2.14-4.26l0.04-0.08h0.2l0.04,0.08l2.14,4.26
				l0.1,0.19h-0.34l-0.04-0.08l-0.5-0.98h-0.11H35.39z M38.17,22.51l-1.37-2.73l-1.38,2.73H38.17z"/>
			<path class="st2" d="M42.07,21.58c0-1.26,1.04-2.26,2.29-2.26s2.29,1,2.29,2.26s-1.04,2.26-2.29,2.26S42.07,22.84,42.07,21.58z
				 M42.37,21.58c0,1.09,0.89,2,1.99,2s1.99-0.9,1.99-2s-0.89-2-1.99-2S42.37,20.49,42.37,21.58z"/>
			<path class="st2" d="M36.11,18.85h-0.31c0-0.27,0.28-0.53,0.57-0.53c0.57,0,0.58,0.41,0.84,0.4c0.16,0,0.27-0.1,0.27-0.27h0.31
				c0,0.27-0.27,0.54-0.57,0.53c-0.57,0-0.56-0.39-0.84-0.4C36.22,18.58,36.11,18.68,36.11,18.85z"/>
			<path class="st2" d="M30.16,23.76c0,0,0.41,0.1,0.42,0.28c0,0.21-0.18,0.39-0.54,0.23l-0.14-0.07l-0.15,0.23l0.13,0.06
				c0.58,0.29,0.99-0.15,0.99-0.45c0-0.29-0.5-0.46-0.5-0.46"/>
		</g>
	</g>
</g>
</svg>
