<svg id="Camada_1" data-name="Camada 1" xmlns="http://www.w3.org/2000/svg" viewBox="0 0 46.43 33.79"><defs><style>.cls-1{fill:#50a5dc;}.cls-2{fill:#7ac943;}</style></defs><title>BOAÇÃO preto globo</title><g id="Camada_4" data-name="Camada 4"><path id="note" d="M42,29.31V7.1H6V29.31L.78,38.39V40.9H47.22V38.39ZM7.14,8.39H40.86V28.27H7.14ZM19.4,38.11l.26-2.89H28l.27,2.89ZM5.63,34.65l2-4.31H40.37l2,4.31Z" transform="translate(-0.78 -7.1)"/></g><g id="globo"><path class="cls-1" d="M20.31,22.12a1.52,1.52,0,0,1-.73-.55l-.47-.64a.43.43,0,0,1-.08-.24l0-1.36a.4.4,0,0,1,.34-.42.42.42,0,0,0,.33-.46l0-.38a.41.41,0,0,0-.16-.29l-.29-.23a1.52,1.52,0,0,0-.93-.32h-.2l-.24,0-.68-.12a5.49,5.49,0,0,0-.07.91,6.62,6.62,0,0,0,3.43,5.74l.14-1.06A.52.52,0,0,0,20.31,22.12Z" transform="translate(-0.78 -7.1)"/><path class="cls-1" d="M30.17,20l0-.05a.39.39,0,0,0-.47-.14l-.31.11a1.39,1.39,0,0,1-.61.08l-.09,0a1.34,1.34,0,0,1-1.08-.83,1.39,1.39,0,0,1-.08-.83l.18-1a1.37,1.37,0,0,1,.35-.7l.08-.08a1.28,1.28,0,0,1,1.18-.41l.48.08h0l.93.24A6.27,6.27,0,0,0,30,14.66l-.59-.08h0l-.65-.15a.3.3,0,0,0-.37.32.32.32,0,0,1-.14.28l-.42.29a.31.31,0,0,1-.32,0L26.89,15a.46.46,0,0,1-.21-.49l.14-.58a.43.43,0,0,1,.4-.35h.5a.43.43,0,0,0,.41-.45v-.43A7.12,7.12,0,0,0,24,11.35a7.27,7.27,0,0,0-1.25.11,1.68,1.68,0,0,1,.56.74l0,0a1.43,1.43,0,0,1,.09.41l0,.13a1.71,1.71,0,0,1-.12.84l-.16.37a1.55,1.55,0,0,1-.59.72l-.2.13a.39.39,0,0,0-.17.33l0,.55a.36.36,0,0,1-.39.39.34.34,0,0,1-.28-.19l-.24-.47a.39.39,0,0,0-.22-.18L20.25,15a.69.69,0,0,0-.47,0l-.2.1a.72.72,0,0,0-.39.82h0a.78.78,0,0,0,.18.35l.55.57A.69.69,0,0,1,20,17l.38.48a.55.55,0,0,0,.45.22h1a.61.61,0,0,1,.51.3.56.56,0,0,0,.38.29l.38.09a.57.57,0,0,1,.39.3l.19.36a.48.48,0,0,0,.2.2l.87.46a.51.51,0,0,1,.26.51.47.47,0,0,1-.16.31l-.33.31a.46.46,0,0,0-.13.2l-.07.2a.5.5,0,0,1-.29.3l-.35.16a.53.53,0,0,0-.32.49.54.54,0,0,1-.06.25l-1,2a7.29,7.29,0,0,0,1.64.19,6.94,6.94,0,0,0,6.28-3.84l0-.6A.41.41,0,0,0,30.17,20Z" transform="translate(-0.78 -7.1)"/><path class="cls-2" d="M23.42,22.21a.53.53,0,0,1,.32-.49l.35-.16a.5.5,0,0,0,.29-.3l.07-.2a.46.46,0,0,1,.13-.2l.33-.31a.47.47,0,0,0,.16-.31.51.51,0,0,0-.26-.51l-.87-.46a.43.43,0,0,1-.2-.2l-.19-.36a.57.57,0,0,0-.39-.3l-.38-.09A.56.56,0,0,1,22.4,18a.61.61,0,0,0-.51-.3h-1a.55.55,0,0,1-.45-.22L20,17a.69.69,0,0,0-.11-.13l-.55-.57a.78.78,0,0,1-.18-.35h0a.72.72,0,0,1,.39-.82l.2-.1a.69.69,0,0,1,.47,0l.85.25a.39.39,0,0,1,.22.18l.24.47a.34.34,0,0,0,.28.19.36.36,0,0,0,.39-.39l0-.55a.39.39,0,0,1,.17-.33l.2-.13a1.55,1.55,0,0,0,.59-.72l.16-.37a1.71,1.71,0,0,0,.12-.84l0-.13a1.43,1.43,0,0,0-.09-.41l0,0a1.68,1.68,0,0,0-.56-.74,6.77,6.77,0,0,0-5.61,5.63l.68.12.24,0h.2a1.52,1.52,0,0,1,.93.32l.29.23a.41.41,0,0,1,.16.29l0,.38a.42.42,0,0,1-.33.46.4.4,0,0,0-.34.42l0,1.36a.43.43,0,0,0,.08.24l.47.64a1.52,1.52,0,0,0,.73.55.52.52,0,0,1,.33.56l-.14,1.06a7.33,7.33,0,0,0,1.86.72l1-2A.54.54,0,0,0,23.42,22.21Z" transform="translate(-0.78 -7.1)"/><path class="cls-2" d="M27.72,13.54h-.5a.43.43,0,0,0-.4.35l-.14.58a.46.46,0,0,0,.21.49l.59.35a.31.31,0,0,0,.32,0l.42-.29a.32.32,0,0,0,.14-.28.3.3,0,0,1,.37-.32l.65.15h0l.59.08a6.82,6.82,0,0,0-1.86-2v.43A.43.43,0,0,1,27.72,13.54Z" transform="translate(-0.78 -7.1)"/><path class="cls-2" d="M30.73,16.43l-.93-.24h0l-.48-.08a1.28,1.28,0,0,0-1.18.41L28,16.6a1.37,1.37,0,0,0-.35.7l-.18,1a1.39,1.39,0,0,0,.08.83,1.34,1.34,0,0,0,1.08.83l.09,0a1.39,1.39,0,0,0,.61-.08l.31-.11a.39.39,0,0,1,.47.14l0,.05a.41.41,0,0,1,.09.26l0,.6A6.34,6.34,0,0,0,30.93,18,6.25,6.25,0,0,0,30.73,16.43Z" transform="translate(-0.78 -7.1)"/><path d="M29.33,20.69a.29.29,0,0,0-.41,0,4.93,4.93,0,0,1-.42.49.32.32,0,0,0,0,.43.32.32,0,0,0,.2.08.29.29,0,0,0,.21-.09,6,6,0,0,0,.46-.54A.31.31,0,0,0,29.33,20.69Z" transform="translate(-0.78 -7.1)"/><path d="M27.79,21.88A6.76,6.76,0,0,1,24,23.32a.3.3,0,0,0-.27.31.3.3,0,0,0,.29.29h0a7.31,7.31,0,0,0,4.12-1.56.31.31,0,0,0,.06-.42A.29.29,0,0,0,27.79,21.88Z" transform="translate(-0.78 -7.1)"/><path d="M31,16.35h0a6.65,6.65,0,0,0-.77-1.85,7.19,7.19,0,0,0-1.95-2.09A7.34,7.34,0,0,0,24,11.05a7.07,7.07,0,0,0-1.3.12,7.28,7.28,0,0,0-3.3,1.48,6.87,6.87,0,0,0-2.55,4.4,7.59,7.59,0,0,0-.07.95,6.79,6.79,0,0,0,1,3.51A7.11,7.11,0,0,0,20.36,24h0a7.37,7.37,0,0,0,1.94.75,7.43,7.43,0,0,0,5.62-.91A7.08,7.08,0,0,0,30.54,21,6.71,6.71,0,0,0,31.22,18,6.61,6.61,0,0,0,31,16.35Zm-1.64-2.09-.57-.14a.59.59,0,0,0-.51.13.61.61,0,0,0-.22.5v0l-.42.29h0L27,14.71a.16.16,0,0,1-.07-.16L27.1,14a.14.14,0,0,1,.13-.11h.49a.72.72,0,0,0,.68-.59A6.62,6.62,0,0,1,29.37,14.26ZM17.36,18c0-.19,0-.37,0-.56l.39.06.29,0h.2a1.2,1.2,0,0,1,.75.26l.3.23a.12.12,0,0,1,0,.08l0,.38a.11.11,0,0,1-.09.13.72.72,0,0,0-.58.72l0,1.36a.71.71,0,0,0,.14.42l.47.64a1.81,1.81,0,0,0,.87.65.24.24,0,0,1,.14.24l-.09.61A6.29,6.29,0,0,1,17.36,18Zm3,3.84a1.3,1.3,0,0,1-.59-.45l-.47-.64a.08.08,0,0,1,0-.07l0-1.36a.11.11,0,0,1,.09-.12.71.71,0,0,0,.58-.78l0-.39a.69.69,0,0,0-.28-.49l-.29-.23a1.79,1.79,0,0,0-1.1-.38h-.2l-.2,0-.39-.06a6.29,6.29,0,0,1,2.28-3.73,6.79,6.79,0,0,1,2.92-1.34,1.24,1.24,0,0,1,.37.53l0,0a1.3,1.3,0,0,1,.08.34v.13a1.23,1.23,0,0,1-.1.68l-.15.37a1.28,1.28,0,0,1-.49.59l-.19.12a.68.68,0,0,0-.3.61l0,.55a.08.08,0,0,1,0,0s0,0-.05,0a.05.05,0,0,1-.06,0l-.24-.46a.67.67,0,0,0-.39-.33l-.85-.24a.92.92,0,0,0-.67,0l-.2.1a1,1,0,0,0-.55,1.16,1.06,1.06,0,0,0,.26.49l.55.57.09.1.37.49a.88.88,0,0,0,.68.33h1a.31.31,0,0,1,.26.15.86.86,0,0,0,.57.43l.38.09a.31.31,0,0,1,.2.15l.19.36a.78.78,0,0,0,.32.33l.87.46a.2.2,0,0,1,.11.2.24.24,0,0,1-.07.13l-.33.3a1,1,0,0,0-.21.32l-.07.2a.25.25,0,0,1-.13.14l-.35.15a.83.83,0,0,0-.49.77.2.2,0,0,1,0,.11l-.9,1.79a6.76,6.76,0,0,1-1.4-.54l.11-.84A.81.81,0,0,0,20.4,21.84ZM24,24.35a7,7,0,0,1-1.21-.11l.83-1.64a.86.86,0,0,0,.09-.39.25.25,0,0,1,.14-.22l.35-.15a.82.82,0,0,0,.45-.48l.07-.2a.22.22,0,0,1,.05-.08l.33-.3a.87.87,0,0,0,.26-.5.8.8,0,0,0-.42-.81L24.07,19a.15.15,0,0,1-.08-.08l-.19-.35a.87.87,0,0,0-.58-.46L22.84,18a.33.33,0,0,1-.2-.15.85.85,0,0,0-.75-.45h-1a.31.31,0,0,1-.23-.12l-.38-.48-.12-.15-.55-.57a.36.36,0,0,1-.11-.21.42.42,0,0,1,.23-.48l.2-.09a.38.38,0,0,1,.28,0l.84.25s0,0,0,0l.24.46a.66.66,0,0,0,.51.35.65.65,0,0,0,.51-.18.72.72,0,0,0,.2-.52l0-.55a.09.09,0,0,1,0-.07l.2-.13a1.91,1.91,0,0,0,.71-.85l.15-.37a2,2,0,0,0,.14-1v-.13a2.07,2.07,0,0,0-.12-.49v0a2,2,0,0,0-.22-.41h0l.63,0a6.84,6.84,0,0,1,3.84,1.17v.28a.14.14,0,0,1-.13.14l-.5,0a.7.7,0,0,0-.67.57l-.14.59a.75.75,0,0,0,.35.81l.58.35a.67.67,0,0,0,.3.08.58.58,0,0,0,.33-.1l.41-.29a.6.6,0,0,0,.27-.54v0h0l.65.15h0l.46.07h0A5.86,5.86,0,0,1,30.31,16l-.45-.12h-.05l-.49-.08a1.59,1.59,0,0,0-1.43.5l-.07.08a1.68,1.68,0,0,0-.43.85l-.18,1a1.75,1.75,0,0,0,.1,1,1.63,1.63,0,0,0,1.31,1h.09a1.56,1.56,0,0,0,.74-.09l.3-.11a.16.16,0,0,1,.16,0l0,.06a.19.19,0,0,1,0,.08v.52A6.69,6.69,0,0,1,24,24.35Zm6.39-4.6,0,0a.7.7,0,0,0-.55-.28.69.69,0,0,0-.24.05l-.31.11a.94.94,0,0,1-.47.06h-.09a1.07,1.07,0,0,1-.85-.66,1.11,1.11,0,0,1-.07-.65l.18-1a1.2,1.2,0,0,1,.28-.55l.07-.07a1,1,0,0,1,.93-.33l.49.08h0l.77.19A6.5,6.5,0,0,1,30.64,18,6,6,0,0,1,30.39,19.75Z" transform="translate(-0.78 -7.1)"/></g></svg>