<svg id="Camada_1" data-name="Camada 1" xmlns="http://www.w3.org/2000/svg" viewBox="0 0 48 48"><defs><style>.cls-1{fill:#febd59;}.cls-2,.cls-3{fill:#fff;}.cls-3{font-size:3.05px;font-family:ModernSansLight, Modern Sans;letter-spacing:0.02em;}</style></defs><title>BOAÇÃO branco fundo laranja</title><g id="Camada_2" data-name="Camada 2"><rect class="cls-1" width="48" height="48"/></g><g id="Camada_4" data-name="Camada 4"><path id="note" class="cls-2" d="M19.35,26.26V16.67H3.19v9.59L.86,30.19v1.08H21.69V30.19Zm-15.64-9H18.84v8.59H3.71ZM9.22,30.07l.11-1.25h3.75l.12,1.25ZM3,28.57l.89-1.86H18.62l.9,1.86Z"/><text class="cls-3" transform="translate(35.16 28.93)">em rede</text><path class="cls-2" d="M8.5,21.52a1.26,1.26,0,0,1,1,1.12A1.39,1.39,0,0,1,8,23.84H5.68V19.32h2a1.39,1.39,0,0,1,1.53,1.2A1.18,1.18,0,0,1,8.5,21.52ZM6,21.45H7.67c.66,0,1.22-.42,1.22-.93a1.12,1.12,0,0,0-1.22-.94H6Zm0,.26v1.87H8a1.12,1.12,0,0,0,1.22-.94c0-.51-.56-.93-1.22-.93H6Z"/><path class="cls-2" d="M12.55,21.58a2.29,2.29,0,1,1,2.29,2.26A2.28,2.28,0,0,1,12.55,21.58Zm.3,0a2,2,0,1,0,2-2A2,2,0,0,0,12.85,21.58Z"/><path class="cls-2" d="M20.91,22.78h-.1l-.49,1,0,.08h-.34l.1-.18,2.14-4.26,0-.08h.2l0,.08,2.13,4.26.1.18h-.33l0-.08-.5-1H20.91Zm2.78-.27-1.37-2.73-1.38,2.73Z"/><path class="cls-2" d="M31.5,22.75l.26.13a2.45,2.45,0,0,1-2,1,2.26,2.26,0,1,1,0-4.52,2.38,2.38,0,0,1,1.95,1l-.27.12a2.07,2.07,0,0,0-1.68-.83,2,2,0,0,0,0,4A2.17,2.17,0,0,0,31.5,22.75Z"/><path class="cls-2" d="M35.39,22.78h-.1l-.5,1,0,.08h-.34l.1-.18,2.14-4.26,0-.08h.19l0,.08,2.14,4.26.1.18h-.34l0-.08-.5-1H35.39Zm2.78-.27L36.8,19.78l-1.38,2.73Z"/><path class="cls-2" d="M42.07,21.58a2.29,2.29,0,1,1,2.29,2.26A2.27,2.27,0,0,1,42.07,21.58Zm.3,0a2,2,0,1,0,2-2A2,2,0,0,0,42.37,21.58Z"/><path class="cls-2" d="M36.11,18.85h-.3a.59.59,0,0,1,.57-.54c.58,0,.58.41.84.4a.25.25,0,0,0,.27-.26h.31a.58.58,0,0,1-.58.53c-.57,0-.56-.39-.84-.4A.25.25,0,0,0,36.11,18.85Z"/><path class="cls-2" d="M30.16,23.76s.41.11.42.29-.18.39-.53.23l-.14-.07-.15.23.13.06a.65.65,0,0,0,1-.45c0-.29-.5-.46-.5-.46"/></g></svg>