<svg xmlns="http://www.w3.org/2000/svg" id="solicitacoes.033c19e9" width="48" height="60" viewBox="0 0 48 60">
    <defs>
        <style>
            .cls-1{fill:#1e333b}.cls-2{fill:#00a750}
        </style>
    </defs>
    <path id="Caminho_80" d="M43.385 0H4.615A4.657 4.657 0 0 0 0 4.688v50.624A4.656 4.656 0 0 0 4.615 60h38.77A4.657 4.657 0 0 0 48 55.312V4.688A4.657 4.657 0 0 0 43.385 0zm2.769 55.313a2.794 2.794 0 0 1-2.77 2.812H4.616a2.794 2.794 0 0 1-2.769-2.813V4.688a2.8 2.8 0 0 1 2.77-2.813h38.769a2.794 2.794 0 0 1 2.769 2.813v50.624z" class="cls-1"/>
    <path id="Caminho_81" d="M18.662 11.349h16.616a.938.938 0 0 0 0-1.875H18.662a.938.938 0 0 0 0 1.875zm23.078 2.335H18.661a.938.938 0 0 0 0 1.875H41.74a.938.938 0 0 0 0-1.875zM18.662 19.77H38.97a.938.938 0 0 0 0-1.875H18.662a.938.938 0 0 0 0 1.875zm-.2 22.1h16.615a.938.938 0 0 0 0-1.875H18.462a.938.938 0 0 0 0 1.875zm23.076 2.34H18.462a.938.938 0 0 0 0 1.876h23.076a.938.938 0 0 0 0-1.875zm-2.768 4.211H18.461a.938.938 0 0 0 0 1.875h20.307a.938.938 0 0 0 0-1.875zM13.525 9.474H6.14a.975.975 0 0 0-.923 1.021v8.171a.976.976 0 0 0 .923 1.021h7.385a.975.975 0 0 0 .923-1.02v-8.172a.975.975 0 0 0-.923-1.021z" class="cls-1"/>
    <path id="Caminho_82" d="M12.6 17.645H7.064v-6.129H12.6z" class="cls-2"/>
    <path id="Caminho_83" d="M13.525 24.21H6.14a.976.976 0 0 0-.923 1.022V33.4a.976.976 0 0 0 .923 1.021h7.385a.975.975 0 0 0 .923-1.021v-8.168a.975.975 0 0 0-.923-1.021z" class="cls-1"/>
    <path id="Caminho_84" d="M12.6 32.382H7.064v-6.129H12.6z" class="cls-2"/>
    <path id="Caminho_85" d="M13.525 40H6.14a.975.975 0 0 0-.923 1.021v8.171a.977.977 0 0 0 .923 1.022h7.385a.976.976 0 0 0 .923-1.022v-8.17A.976.976 0 0 0 13.525 40z" class="cls-1"/>
    <path id="Caminho_86" d="M12.6 48.171H7.064v-6.128H12.6z" class="cls-2"/>
    <path id="Caminho_87" d="M18.462 26.086h16.615a.938.938 0 0 0 0-1.875H18.462a.938.938 0 0 0 0 1.875zm23.076 2.335H18.462a.938.938 0 0 0 0 1.875h23.076a.938.938 0 0 0 0-1.875zm-23.076 6.086h20.307a.938.938 0 0 0 0-1.875H18.462a.938.938 0 0 0 0 1.875z" class="cls-1"/>
</svg>
