<svg id="Camada_1" data-name="Camada 1" xmlns="http://www.w3.org/2000/svg" viewBox="0 0 45.79 14.6"><defs><style>.cls-1{fill:#50a5dc;}.cls-2{fill:#7ac943;}</style></defs><title>BOAÇÃO preto</title><g id="Camada_4" data-name="Camada 4"><path id="note" d="M19.35,26.29V16.7H3.19v9.59L.86,30.22V31.3H21.69V30.22Zm-15.64-9H18.84v8.59H3.71ZM9.22,30.1l.11-1.25h3.75l.12,1.25ZM3,28.6l.89-1.86H18.62l.9,1.86Z" transform="translate(-0.86 -16.7)"/><path d="M8.5,21.55a1.25,1.25,0,0,1,1,1.12A1.4,1.4,0,0,1,8,23.87H5.68V19.35h2A1.39,1.39,0,0,1,9.2,20.54,1.18,1.18,0,0,1,8.5,21.55ZM6,21.48H7.67a1.12,1.12,0,0,0,1.22-.94c0-.51-.56-.93-1.22-.93H6Zm0,.26v1.87H8c.66,0,1.22-.41,1.22-.93s-.56-.93-1.22-.93H6Z" transform="translate(-0.86 -16.7)"/><path d="M12.55,21.61a2.29,2.29,0,1,1,2.29,2.26A2.27,2.27,0,0,1,12.55,21.61Zm.3,0a2,2,0,1,0,2-2A2,2,0,0,0,12.85,21.61Z" transform="translate(-0.86 -16.7)"/><path d="M20.91,22.81h-.1l-.49,1,0,.08h-.34l.1-.19,2.14-4.25,0-.08h.2l0,.08,2.13,4.25.1.19h-.33l0-.08-.5-1H20.91Zm2.78-.27-1.37-2.73-1.38,2.73Z" transform="translate(-0.86 -16.7)"/><path d="M31.5,22.78l.26.13a2.45,2.45,0,0,1-2,1,2.26,2.26,0,1,1,0-4.52,2.38,2.38,0,0,1,1.95,1l-.27.12a2.07,2.07,0,0,0-1.68-.83,2,2,0,0,0,0,4A2.16,2.16,0,0,0,31.5,22.78Z" transform="translate(-0.86 -16.7)"/><path d="M35.39,22.81h-.1l-.5,1,0,.08h-.34l.1-.19,2.14-4.25,0-.08h.19l0,.08,2.14,4.25.1.19h-.34l0-.08-.5-1H35.39Zm2.78-.27L36.8,19.81l-1.38,2.73Z" transform="translate(-0.86 -16.7)"/><path d="M42.07,21.61a2.29,2.29,0,1,1,2.29,2.26A2.26,2.26,0,0,1,42.07,21.61Zm.3,0a2,2,0,1,0,2-2A2,2,0,0,0,42.37,21.61Z" transform="translate(-0.86 -16.7)"/><path d="M36.11,18.87h-.3a.59.59,0,0,1,.57-.53c.58,0,.58.41.84.4a.25.25,0,0,0,.27-.26h.31a.59.59,0,0,1-.58.53c-.57,0-.56-.39-.84-.4A.25.25,0,0,0,36.11,18.87Z" transform="translate(-0.86 -16.7)"/><path d="M30.16,23.79s.41.11.42.29-.18.39-.53.22l-.14-.06-.15.23.13.06a.65.65,0,0,0,1-.45c0-.3-.5-.47-.5-.47" transform="translate(-0.86 -16.7)"/><path class="cls-1" d="M13.66,22.92a.48.48,0,0,1-.22-.18l-.15-.2a.31.31,0,0,1,0-.08V22a.13.13,0,0,1,.11-.14.13.13,0,0,0,.1-.15v-.12a.13.13,0,0,0-.05-.09l-.09-.08a.53.53,0,0,0-.29-.1h-.14l-.21,0a2.64,2.64,0,0,0,0,.29,2.15,2.15,0,0,0,1.06,1.85l0-.34A.17.17,0,0,0,13.66,22.92Z" transform="translate(-0.86 -16.7)"/><path class="cls-1" d="M16.72,22.22v0a.13.13,0,0,0-.15,0l-.09,0a.42.42,0,0,1-.19,0h0a.4.4,0,0,1-.33-.27.39.39,0,0,1,0-.26l.06-.32a.39.39,0,0,1,.11-.22l0,0a.36.36,0,0,1,.36-.13l.16,0h0l.29.07a2.35,2.35,0,0,0-.23-.57l-.19,0h0l-.2-.05a.1.1,0,0,0-.12.11.15.15,0,0,1,0,.09l-.13.09a.09.09,0,0,1-.1,0l-.19-.11a.15.15,0,0,1-.06-.16l0-.19a.16.16,0,0,1,.13-.11H16a.14.14,0,0,0,.13-.14v-.15a2.18,2.18,0,0,0-1.28-.42,2.58,2.58,0,0,0-.39,0,.46.46,0,0,1,.17.24h0a.31.31,0,0,1,0,.13v0a.59.59,0,0,1,0,.27l0,.12a.5.5,0,0,1-.19.24l-.06,0a.13.13,0,0,0-.05.11v.17c0,.08,0,.14-.12.13a.11.11,0,0,1-.09-.06L14,20.77a.13.13,0,0,0-.07-.06l-.26-.08a.2.2,0,0,0-.15,0l-.06,0a.23.23,0,0,0-.12.27h0a.37.37,0,0,0,0,.11l.17.18,0,0,.12.16a.15.15,0,0,0,.14.07h.31a.18.18,0,0,1,.16.1.18.18,0,0,0,.12.09l.12,0a.19.19,0,0,1,.12.1l.06.11a.13.13,0,0,0,.06.07l.27.15a.15.15,0,0,1,.08.16.12.12,0,0,1-.05.1l-.1.1a.16.16,0,0,0,0,.07l0,.06a.22.22,0,0,1-.09.1l-.11.05a.18.18,0,0,0-.1.16.24.24,0,0,1,0,.08l-.31.64a2.1,2.1,0,0,0,.51.06,2.16,2.16,0,0,0,2-1.23v-.2A.11.11,0,0,0,16.72,22.22Z" transform="translate(-0.86 -16.7)"/><path class="cls-2" d="M14.63,23a.18.18,0,0,1,.1-.16l.11-.05a.22.22,0,0,0,.09-.1l0-.06a.16.16,0,0,1,0-.07l.1-.1a.12.12,0,0,0,.05-.1.15.15,0,0,0-.08-.16L14.79,22a.13.13,0,0,1-.06-.07l-.06-.11a.19.19,0,0,0-.12-.1l-.12,0a.18.18,0,0,1-.12-.09.18.18,0,0,0-.16-.1h-.31a.15.15,0,0,1-.14-.07l-.12-.16,0,0-.17-.18a.37.37,0,0,1,0-.11h0a.23.23,0,0,1,.12-.27l.06,0a.2.2,0,0,1,.15,0l.26.08a.13.13,0,0,1,.07.06l.07.15a.11.11,0,0,0,.09.06c.07,0,.12-.05.12-.13v-.17a.13.13,0,0,1,.05-.11l.06,0a.5.5,0,0,0,.19-.24l0-.12a.59.59,0,0,0,0-.27v0a.31.31,0,0,0,0-.13h0a.46.46,0,0,0-.17-.24,2.14,2.14,0,0,0-1.74,1.82l.21,0H13a.53.53,0,0,1,.29.1l.09.08a.13.13,0,0,1,.05.09v.12a.13.13,0,0,1-.1.15.13.13,0,0,0-.11.14v.44a.31.31,0,0,0,0,.08l.15.2a.48.48,0,0,0,.22.18.17.17,0,0,1,.11.18l0,.34a2.27,2.27,0,0,0,.58.23l.31-.64A.24.24,0,0,0,14.63,23Z" transform="translate(-0.86 -16.7)"/><path class="cls-2" d="M16,20.15h-.15a.16.16,0,0,0-.13.11l0,.19a.15.15,0,0,0,.06.16l.19.11a.09.09,0,0,0,.1,0l.13-.09a.15.15,0,0,0,0-.09.1.1,0,0,1,.12-.11l.2.05h0l.19,0a2.4,2.4,0,0,0-.58-.65V20A.14.14,0,0,1,16,20.15Z" transform="translate(-0.86 -16.7)"/><path class="cls-2" d="M16.9,21.08,16.61,21h0l-.16,0a.36.36,0,0,0-.36.13l0,0a.39.39,0,0,0-.11.22l-.06.32a.39.39,0,0,0,0,.26.4.4,0,0,0,.33.27h0a.42.42,0,0,0,.19,0l.09,0a.13.13,0,0,1,.15,0v0a.11.11,0,0,1,0,.08v.2a2.32,2.32,0,0,0,.2-.91A2.1,2.1,0,0,0,16.9,21.08Z" transform="translate(-0.86 -16.7)"/><path d="M16.46,22.46a.09.09,0,0,0-.13,0,1,1,0,0,1-.13.16.12.12,0,0,0,0,.14.09.09,0,0,0,.07,0,.09.09,0,0,0,.06,0l.14-.18A.09.09,0,0,0,16.46,22.46Z" transform="translate(-0.86 -16.7)"/><path d="M16,22.84a2,2,0,0,1-1.18.47c-.05,0-.08,0-.08.1a.09.09,0,0,0,.09.09h0a2.21,2.21,0,0,0,1.28-.5.11.11,0,0,0,0-.14A.09.09,0,0,0,16,22.84Z" transform="translate(-0.86 -16.7)"/><path d="M17,21.06h0a2.22,2.22,0,0,0-.24-.6,2.43,2.43,0,0,0-.6-.68,2.27,2.27,0,0,0-1.33-.43,2.6,2.6,0,0,0-.4,0,2.33,2.33,0,0,0-1,.48,2.28,2.28,0,0,0-.79,1.42c0,.1,0,.21,0,.31a2.23,2.23,0,0,0,.31,1.13,2.3,2.3,0,0,0,.8.81h0a2.22,2.22,0,0,0,.6.24,2.33,2.33,0,0,0,.53.06A2.17,2.17,0,0,0,16,23.47a2.14,2.14,0,0,0,.81-.93,2.24,2.24,0,0,0,.22-.95A2.33,2.33,0,0,0,17,21.06Zm-.51-.68-.17,0a.16.16,0,0,0-.16,0,.2.2,0,0,0-.07.16h0l-.13.09h0l-.18-.11a0,0,0,0,1,0-.05l0-.19a0,0,0,0,1,0,0H16a.23.23,0,0,0,.21-.2A2.35,2.35,0,0,1,16.47,20.38Zm-3.72,1.21a1.09,1.09,0,0,1,0-.18l.12,0H13a.38.38,0,0,1,.23.08l.09.07s0,0,0,0v.13s0,0,0,0a.23.23,0,0,0-.18.23v.44a.2.2,0,0,0,0,.13l.15.21a.56.56,0,0,0,.27.21s0,0,0,.08l0,.19A2,2,0,0,1,12.75,21.59Zm.94,1.24a.43.43,0,0,1-.18-.15l-.15-.2V22s0,0,0,0a.24.24,0,0,0,.18-.26V21.6a.26.26,0,0,0-.09-.16l-.09-.07a.55.55,0,0,0-.34-.13h-.12l-.13,0a2,2,0,0,1,.71-1.2,2.09,2.09,0,0,1,.91-.44.39.39,0,0,1,.11.17v0a.36.36,0,0,1,0,.1v.05a.83.83,0,0,1,0,.22l0,.12a.44.44,0,0,1-.15.18l-.06,0a.23.23,0,0,0-.1.19v.18s0,0,0,0h0l-.07-.15a.24.24,0,0,0-.13-.11l-.26-.07a.26.26,0,0,0-.21,0l-.06,0a.36.36,0,0,0-.17.38.35.35,0,0,0,.08.16l.17.18,0,0,.12.15a.25.25,0,0,0,.21.11h.31a.08.08,0,0,1,.08,0,.31.31,0,0,0,.18.14l.12,0a.1.1,0,0,1,.06.05l.06.12a.35.35,0,0,0,.1.11l.27.14s0,0,0,.07a.05.05,0,0,1,0,0l-.1.1a.21.21,0,0,0-.06.1l0,.07s0,0,0,0l-.11.05a.27.27,0,0,0-.15.25,0,0,0,0,1,0,0l-.28.58a2.26,2.26,0,0,1-.43-.17l0-.28A.28.28,0,0,0,13.69,22.83Zm1.12.81a1.64,1.64,0,0,1-.38,0l.26-.53a.27.27,0,0,0,0-.12.08.08,0,0,1,0-.07l.11-.05a.25.25,0,0,0,.14-.16l0-.06,0,0,.1-.1a.26.26,0,0,0-.05-.42l-.27-.15a0,0,0,0,1,0,0l-.06-.12a.28.28,0,0,0-.18-.14l-.12,0s0,0-.06-.05a.27.27,0,0,0-.24-.14h-.31a.12.12,0,0,1-.08,0l-.11-.16,0,0L13.44,21a.16.16,0,0,1,0-.07.15.15,0,0,1,.07-.15l.07,0a.11.11,0,0,1,.08,0l.27.08h0L14,21a.2.2,0,0,0,.16.12.23.23,0,0,0,.16-.06.27.27,0,0,0,.06-.17v-.18s0,0,0,0l.06,0a.62.62,0,0,0,.22-.28l0-.12a.69.69,0,0,0,0-.32v0a.94.94,0,0,0,0-.16h0a.54.54,0,0,0-.07-.13h.2a2,2,0,0,1,1.19.38V20a0,0,0,0,1,0,0H15.8a.23.23,0,0,0-.21.18l0,.19a.24.24,0,0,0,.11.26l.18.12.09,0a.17.17,0,0,0,.1,0l.13-.09a.21.21,0,0,0,.09-.18h0l.2,0h0l.14,0h0a2.17,2.17,0,0,1,.15.35l-.13,0h0l-.15,0A.49.49,0,0,0,16,21l0,0a.53.53,0,0,0-.13.27l-.06.32a.58.58,0,0,0,0,.32.53.53,0,0,0,.41.33h0a.46.46,0,0,0,.23,0l.09,0a0,0,0,0,1,.05,0v0a0,0,0,0,1,0,0v.16A2.08,2.08,0,0,1,14.81,23.64Zm2-1.49h0a.22.22,0,0,0-.17-.09l-.08,0-.09,0a.26.26,0,0,1-.15,0h0a.33.33,0,0,1-.26-.21.31.31,0,0,1,0-.21l.05-.32a.51.51,0,0,1,.09-.18l0,0a.3.3,0,0,1,.29-.11l.15,0h0l.24.06a1.94,1.94,0,0,1,0,1Z" transform="translate(-0.86 -16.7)"/></g></svg>